<svg width="8" height="14" viewBox="0 0 8 14" fill="none" xmlns="http://www.w3.org/2000/svg">
<path d="M7.2533 0.919994C7.17589 0.842388 7.08393 0.780817 6.98269 0.738806C6.88144 0.696795 6.77291 0.675171 6.6633 0.675171C6.55369 0.675171 6.44515 0.696795 6.34391 0.738806C6.24267 0.780817 6.15071 0.842388 6.0733 0.919994L0.46663 6.52666C0.404828 6.58834 0.355796 6.6616 0.322342 6.74224C0.288887 6.82289 0.271667 6.90935 0.271667 6.99666C0.271667 7.08397 0.288887 7.17043 0.322342 7.25108C0.355796 7.33173 0.404828 7.40498 0.46663 7.46666L6.0733 13.0733C6.39996 13.4 6.92663 13.4 7.2533 13.0733C7.57996 12.7467 7.57996 12.22 7.2533 11.8933L2.35996 6.99999L7.25996 2.09999C7.57996 1.77333 7.57996 1.24666 7.2533 0.919994Z" fill="#ffffff"/>
</svg>
